{"accessors" : [{"bufferView" : 0, "byteOffset" : 0, "componentType" : 5123, "count" : 2400, "type" : "SCALAR", "max" : [2399], "min" : [0]}, {"bufferView" : 1, "byteOffset" : 0, "componentType" : 5126, "count" : 2400, "type" : "VEC3", "max" : [43748.94921875, 43752.94921875, 43756.94921875], "min" : [-4231.0498046875, -4227.0498046875, -4223.0498046875]}, {"bufferView" : 1, "byteOffset" : 12, "componentType" : 5126, "count" : 2400, "type" : "VEC2", "max" : [43760.94921875, 43764.94921875], "min" : [-4219.0498046875, -4215.0498046875]}, {"bufferView" : 0, "byteOffset" : 4800, "componentType" : 5123, "count" : 960, "type" : "SCALAR", "max" : [959], "min" : [0]}, {"bufferView" : 2, "byteOffset" : 0, "componentType" : 5126, "count" : 960, "type" : "VEC3", "max" : [19205.955078125, 19209.955078125, 19213.955078125], "min" : [25.955781936645508, 29.955781936645508, 33.955780029296875]}, {"bufferView" : 2, "byteOffset" : 12, "componentType" : 5126, "count" : 960, "type" : "VEC2", "max" : [19217.955078125, 19221.955078125], "min" : [37.955780029296875, 41.955780029296875]}, {"bufferView" : 0, "byteOffset" : 6720, "componentType" : 5123, "count" : 960, "type" : "SCALAR", "max" : [959], "min" : [0]}, {"bufferView" : 3, "byteOffset" : 0, "componentType" : 5126, "count" : 960, "type" : "VEC3", "max" : [19205.955078125, 19209.955078125, 19213.955078125], "min" : [25.95579719543457, 29.95579719543457, 33.95579528808594]}, {"bufferView" : 3, "byteOffset" : 12, "componentType" : 5126, "count" : 960, "type" : "VEC2", "max" : [19217.955078125, 19221.955078125], "min" : [37.95579528808594, 41.95579528808594]}, {"bufferView" : 0, "byteOffset" : 8640, "componentType" : 5123, "count" : 960, "type" : "SCALAR", "max" : [959], "min" : [0]}, {"bufferView" : 4, "byteOffset" : 0, "componentType" : 5126, "count" : 960, "type" : "VEC3", "max" : [19205.955078125, 19209.955078125, 19213.955078125], "min" : [25.95579719543457, 29.95579719543457, 33.95579528808594]}, {"bufferView" : 4, "byteOffset" : 12, "componentType" : 5126, "count" : 960, "type" : "VEC2", "max" : [19217.955078125, 19221.955078125], "min" : [37.95579528808594, 41.95579528808594]}, {"bufferView" : 0, "byteOffset" : 10560, "componentType" : 5123, "count" : 972, "type" : "SCALAR", "max" : [971], "min" : [0]}, {"bufferView" : 5, "byteOffset" : 0, "componentType" : 5126, "count" : 972, "type" : "VEC3", "max" : [19426.265625, 19430.265625, 19434.265625], "min" : [6.2665557861328125, 10.266555786132812, 14.266555786132812]}, {"bufferView" : 5, "byteOffset" : 12, "componentType" : 5126, "count" : 972, "type" : "VEC2", "max" : [19438.265625, 19442.265625], "min" : [18.266555786132812, 22.266555786132812]}, {"bufferView" : 0, "byteOffset" : 12504, "componentType" : 5123, "count" : 972, "type" : "SCALAR", "max" : [971], "min" : [0]}, {"bufferView" : 6, "byteOffset" : 0, "componentType" : 5126, "count" : 972, "type" : "VEC3", "max" : [19426.265625, 19430.265625, 19434.265625], "min" : [6.2665557861328125, 10.266555786132812, 14.266555786132812]}, {"bufferView" : 6, "byteOffset" : 12, "componentType" : 5126, "count" : 972, "type" : "VEC2", "max" : [19438.265625, 19442.265625], "min" : [18.266555786132812, 22.266555786132812]}, {"bufferView" : 0, "byteOffset" : 14448, "componentType" : 5123, "count" : 972, "type" : "SCALAR", "max" : [971], "min" : [0]}, {"bufferView" : 7, "byteOffset" : 0, "componentType" : 5126, "count" : 972, "type" : "VEC3", "max" : [19426.265625, 19430.265625, 19434.265625], "min" : [6.2665557861328125, 10.266555786132812, 14.266555786132812]}, {"bufferView" : 7, "byteOffset" : 12, "componentType" : 5126, "count" : 972, "type" : "VEC2", "max" : [19438.265625, 19442.265625], "min" : [18.266555786132812, 22.266555786132812]}, {"bufferView" : 0, "byteOffset" : 16392, "componentType" : 5123, "count" : 972, "type" : "SCALAR", "max" : [971], "min" : [0]}, {"bufferView" : 8, "byteOffset" : 0, "componentType" : 5126, "count" : 972, "type" : "VEC3", "max" : [19437.734375, 19441.734375, 19445.734375], "min" : [17.733613967895508, 21.733613967895508, 25.733613967895508]}, {"bufferView" : 8, "byteOffset" : 12, "componentType" : 5126, "count" : 972, "type" : "VEC2", "max" : [19449.734375, 19453.734375], "min" : [29.733613967895508, 33.733612060546875]}, {"bufferView" : 0, "byteOffset" : 18336, "componentType" : 5123, "count" : 972, "type" : "SCALAR", "max" : [971], "min" : [0]}, {"bufferView" : 9, "byteOffset" : 0, "componentType" : 5126, "count" : 972, "type" : "VEC3", "max" : [19437.734375, 19441.734375, 19445.734375], "min" : [17.733598709106445, 21.733598709106445, 25.733598709106445]}, {"bufferView" : 9, "byteOffset" : 12, "componentType" : 5126, "count" : 972, "type" : "VEC2", "max" : [19449.734375, 19453.734375], "min" : [29.733598709106445, 33.73359680175781]}, {"bufferView" : 0, "byteOffset" : 20280, "componentType" : 5123, "count" : 972, "type" : "SCALAR", "max" : [971], "min" : [0]}, {"bufferView" : 10, "byteOffset" : 0, "componentType" : 5126, "count" : 972, "type" : "VEC3", "max" : [19437.734375, 19441.734375, 19445.734375], "min" : [17.73360252380371, 21.73360252380371, 25.73360252380371]}, {"bufferView" : 10, "byteOffset" : 12, "componentType" : 5126, "count" : 972, "type" : "VEC2", "max" : [19449.734375, 19453.734375], "min" : [29.73360252380371, 33.733604431152344]}, {"bufferView" : 0, "byteOffset" : 22224, "componentType" : 5123, "count" : 996, "type" : "SCALAR", "max" : [995], "min" : [0]}, {"bufferView" : 11, "byteOffset" : 0, "componentType" : 5126, "count" : 996, "type" : "VEC3", "max" : [19916.3828125, 19920.3828125, 19924.3828125], "min" : [16.38237190246582, 20.38237190246582, 24.38237190246582]}, {"bufferView" : 11, "byteOffset" : 12, "componentType" : 5126, "count" : 996, "type" : "VEC2", "max" : [19928.3828125, 19932.3828125], "min" : [28.38237190246582, 32.38236999511719]}, {"bufferView" : 0, "byteOffset" : 24216, "componentType" : 5123, "count" : 996, "type" : "SCALAR", "max" : [995], "min" : [0]}, {"bufferView" : 12, "byteOffset" : 0, "componentType" : 5126, "count" : 996, "type" : "VEC3", "max" : [19916.3828125, 19920.3828125, 19924.3828125], "min" : [16.382356643676758, 20.382356643676758, 24.382356643676758]}, {"bufferView" : 12, "byteOffset" : 12, "componentType" : 5126, "count" : 996, "type" : "VEC2", "max" : [19928.3828125, 19932.3828125], "min" : [28.382356643676758, 32.382354736328125]}, {"bufferView" : 0, "byteOffset" : 26208, "componentType" : 5123, "count" : 996, "type" : "SCALAR", "max" : [995], "min" : [0]}, {"bufferView" : 13, "byteOffset" : 0, "componentType" : 5126, "count" : 996, "type" : "VEC3", "max" : [19916.3828125, 19920.3828125, 19924.3828125], "min" : [16.382356643676758, 20.382356643676758, 24.382356643676758]}, {"bufferView" : 13, "byteOffset" : 12, "componentType" : 5126, "count" : 996, "type" : "VEC2", "max" : [19928.3828125, 19932.3828125], "min" : [28.382356643676758, 32.382354736328125]}], "asset" : {"generator" : "Aspose.3D 20.8", "version" : "2.0"}, "buffers" : [{"uri" : "buffer.bin", "byteLength" : 310256}], "bufferViews" : [{"buffer" : 0, "byteOffset" : 0, "byteLength" : 28200, "target" : 34963}, {"buffer" : 0, "byteOffset" : 28204, "byteLength" : 48000, "byteStride" : 20, "target" : 34962}, {"buffer" : 0, "byteOffset" : 76208, "byteLength" : 19200, "byteStride" : 20, "target" : 34962}, {"buffer" : 0, "byteOffset" : 95412, "byteLength" : 19200, "byteStride" : 20, "target" : 34962}, {"buffer" : 0, "byteOffset" : 114616, "byteLength" : 19200, "byteStride" : 20, "target" : 34962}, {"buffer" : 0, "byteOffset" : 133820, "byteLength" : 19440, "byteStride" : 20, "target" : 34962}, {"buffer" : 0, "byteOffset" : 153264, "byteLength" : 19440, "byteStride" : 20, "target" : 34962}, {"buffer" : 0, "byteOffset" : 172708, "byteLength" : 19440, "byteStride" : 20, "target" : 34962}, {"buffer" : 0, "byteOffset" : 192152, "byteLength" : 19440, "byteStride" : 20, "target" : 34962}, {"buffer" : 0, "byteOffset" : 211596, "byteLength" : 19440, "byteStride" : 20, "target" : 34962}, {"buffer" : 0, "byteOffset" : 231040, "byteLength" : 19440, "byteStride" : 20, "target" : 34962}, {"buffer" : 0, "byteOffset" : 250484, "byteLength" : 19920, "byteStride" : 20, "target" : 34962}, {"buffer" : 0, "byteOffset" : 270408, "byteLength" : 19920, "byteStride" : 20, "target" : 34962}, {"buffer" : 0, "byteOffset" : 290332, "byteLength" : 19920, "byteStride" : 20, "target" : 34962}], "cameras" : [{"perspective" : {"aspectRatio" : 1.3333333333333333, "yfov" : 0.43833943764363487, "zfar" : 4000, "znear" : 10}, "type" : "perspective"}], "images" : [{"uri" : "Car_12.png"}, {"uri" : "Car_11.png"}, {"uri" : "Car_10.png"}, {"uri" : "Car_06.png"}, {"uri" : "Car_04.png"}, {"uri" : "Car_05.png"}, {"uri" : "Car_08.png"}, {"uri" : "Car_09.png"}, {"uri" : "Car_07.png"}, {"uri" : "Car_02.png"}, {"uri" : "Car_01.png"}, {"uri" : "Car_03.png"}], "materials" : [{"pbrMetallicRoughness" : {"baseColorFactor" : [1, 1, 1, 1], "metallicFactor" : 0, "roughnessFactor" : 0}, "emissiveFactor" : [0, 0, 0], "alphaMode" : "OPAQUE", "doubleSided" : false}, {"pbrMetallicRoughness" : {"baseColorFactor" : [0.5, 0.5, 0.5, 1], "baseColorTexture" : {"index" : 0, "texCoord" : 0}, "metallicFactor" : 0, "roughnessFactor" : 0}, "emissiveFactor" : [0, 0, 0], "alphaMode" : "OPAQUE", "doubleSided" : false}, {"pbrMetallicRoughness" : {"baseColorFactor" : [0.5, 0.5, 0.5, 1], "baseColorTexture" : {"index" : 1, "texCoord" : 0}, "metallicFactor" : 0, "roughnessFactor" : 0}, "emissiveFactor" : [0, 0, 0], "alphaMode" : "OPAQUE", "doubleSided" : false}, {"pbrMetallicRoughness" : {"baseColorFactor" : [0.5, 0.5, 0.5, 1], "baseColorTexture" : {"index" : 2, "texCoord" : 0}, "metallicFactor" : 0, "roughnessFactor" : 0}, "emissiveFactor" : [0, 0, 0], "alphaMode" : "OPAQUE", "doubleSided" : false}, {"pbrMetallicRoughness" : {"baseColorFactor" : [0.5, 0.5, 0.5, 1], "baseColorTexture" : {"index" : 3, "texCoord" : 0}, "metallicFactor" : 0, "roughnessFactor" : 0}, "emissiveFactor" : [0, 0, 0], "alphaMode" : "OPAQUE", "doubleSided" : false}, {"pbrMetallicRoughness" : {"baseColorFactor" : [0.5, 0.5, 0.5, 1], "baseColorTexture" : {"index" : 4, "texCoord" : 0}, "metallicFactor" : 0, "roughnessFactor" : 0}, "emissiveFactor" : [0, 0, 0], "alphaMode" : "OPAQUE", "doubleSided" : false}, {"pbrMetallicRoughness" : {"baseColorFactor" : [0.5, 0.5, 0.5, 1], "baseColorTexture" : {"index" : 5, "texCoord" : 0}, "metallicFactor" : 0, "roughnessFactor" : 0}, "emissiveFactor" : [0, 0, 0], "alphaMode" : "OPAQUE", "doubleSided" : false}, {"pbrMetallicRoughness" : {"baseColorFactor" : [0.5, 0.5, 0.5, 1], "baseColorTexture" : {"index" : 6, "texCoord" : 0}, "metallicFactor" : 0, "roughnessFactor" : 0}, "emissiveFactor" : [0, 0, 0], "alphaMode" : "OPAQUE", "doubleSided" : false}, {"pbrMetallicRoughness" : {"baseColorFactor" : [0.5, 0.5, 0.5, 1], "baseColorTexture" : {"index" : 7, "texCoord" : 0}, "metallicFactor" : 0, "roughnessFactor" : 0}, "emissiveFactor" : [0, 0, 0], "alphaMode" : "OPAQUE", "doubleSided" : false}, {"pbrMetallicRoughness" : {"baseColorFactor" : [0.5, 0.5, 0.5, 1], "baseColorTexture" : {"index" : 8, "texCoord" : 0}, "metallicFactor" : 0, "roughnessFactor" : 0}, "emissiveFactor" : [0, 0, 0], "alphaMode" : "OPAQUE", "doubleSided" : false}, {"pbrMetallicRoughness" : {"baseColorFactor" : [0.5, 0.5, 0.5, 1], "baseColorTexture" : {"index" : 9, "texCoord" : 0}, "metallicFactor" : 0, "roughnessFactor" : 0}, "emissiveFactor" : [0, 0, 0], "alphaMode" : "OPAQUE", "doubleSided" : false}, {"pbrMetallicRoughness" : {"baseColorFactor" : [0.5, 0.5, 0.5, 1], "baseColorTexture" : {"index" : 10, "texCoord" : 0}, "metallicFactor" : 0, "roughnessFactor" : 0}, "emissiveFactor" : [0, 0, 0], "alphaMode" : "OPAQUE", "doubleSided" : false}, {"pbrMetallicRoughness" : {"baseColorFactor" : [0.5, 0.5, 0.5, 1], "baseColorTexture" : {"index" : 11, "texCoord" : 0}, "metallicFactor" : 0, "roughnessFactor" : 0}, "emissiveFactor" : [0, 0, 0], "alphaMode" : "OPAQUE", "doubleSided" : false}], "meshes" : [{"primitives" : [{"attributes" : {"POSITION" : 1, "TEXCOORD_0" : 2}, "indices" : 0, "material" : 0, "mode" : 4}]}, {"primitives" : [{"attributes" : {"POSITION" : 4, "TEXCOORD_0" : 5}, "indices" : 3, "material" : 1, "mode" : 4}]}, {"primitives" : [{"attributes" : {"POSITION" : 7, "TEXCOORD_0" : 8}, "indices" : 6, "material" : 2, "mode" : 4}]}, {"primitives" : [{"attributes" : {"POSITION" : 10, "TEXCOORD_0" : 11}, "indices" : 9, "material" : 3, "mode" : 4}]}, {"primitives" : [{"attributes" : {"POSITION" : 13, "TEXCOORD_0" : 14}, "indices" : 12, "material" : 4, "mode" : 4}]}, {"primitives" : [{"attributes" : {"POSITION" : 16, "TEXCOORD_0" : 17}, "indices" : 15, "material" : 5, "mode" : 4}]}, {"primitives" : [{"attributes" : {"POSITION" : 19, "TEXCOORD_0" : 20}, "indices" : 18, "material" : 6, "mode" : 4}]}, {"primitives" : [{"attributes" : {"POSITION" : 22, "TEXCOORD_0" : 23}, "indices" : 21, "material" : 7, "mode" : 4}]}, {"primitives" : [{"attributes" : {"POSITION" : 25, "TEXCOORD_0" : 26}, "indices" : 24, "material" : 8, "mode" : 4}]}, {"primitives" : [{"attributes" : {"POSITION" : 28, "TEXCOORD_0" : 29}, "indices" : 27, "material" : 9, "mode" : 4}]}, {"primitives" : [{"attributes" : {"POSITION" : 31, "TEXCOORD_0" : 32}, "indices" : 30, "material" : 10, "mode" : 4}]}, {"primitives" : [{"attributes" : {"POSITION" : 34, "TEXCOORD_0" : 35}, "indices" : 33, "material" : 11, "mode" : 4}]}, {"primitives" : [{"attributes" : {"POSITION" : 37, "TEXCOORD_0" : 38}, "indices" : 36, "material" : 12, "mode" : 4}]}, {}, {}, {}, {}, {}], "nodes" : [{"matrix" : [-1, 0, 0, 0, 0, 0, 1, 0, 0, 1, 0, 0, 0, -10, 0, 1], "mesh" : 0, "name" : "Plane"}, {"matrix" : [4.214684778958144E-08, -4.214684778958144E-08, -1, 0, -1, 0, -4.214684778958144E-08, 0, 1.7763568394002505E-15, 1, -4.214684778958144E-08, 0, 230.00001525878906, 17.844152450561523, -282.02166748046875, 1], "mesh" : 1, "name" : "Car_12"}, {"matrix" : [4.214684778958144E-08, -4.214684778958144E-08, -1, 0, -1, 0, -4.214684778958144E-08, 0, 1.7763568394002505E-15, 1, -4.214684778958144E-08, 0, 230, 17.75416374206543, -53.512901306152344, 1], "mesh" : 2, "name" : "Car_11"}, {"matrix" : [4.214684778958144E-08, -4.214684778958144E-08, -1, 0, -1, 0, -4.214684778958144E-08, 0, 1.7763568394002505E-15, 1, -4.214684778958144E-08, 0, 230.00001525878906, 18.101938247680664, -165.08448791503906, 1], "mesh" : 3, "name" : "Car_10"}, {"matrix" : [-1, 0, 0, 0, 0, 1, 6.123234262925839E-17, 0, 0, 6.123234262925839E-17, -1, 0, 160, -3.153766632080078, 81.04383087158203, 1], "mesh" : 4, "name" : "Car_09"}, {"matrix" : [-1, 0, 0, 0, 0, 1, 6.123234262925839E-17, 0, 0, 6.123234262925839E-17, -1, 0, 160, -3.2223267555236816, 202.5221710205078, 1], "mesh" : 5, "name" : "Car_08"}, {"matrix" : [-1, 0, 0, 0, 0, 1, 6.123234262925839E-17, 0, 0, 6.123234262925839E-17, -1, 0, 160, -3.1934261322021484, 322.84442138671875, 1], "mesh" : 6, "name" : "Car_07"}, {"matrix" : [3.650024282819686E-08, -3.942476567431186E-08, -1, 0, -1, 0, -3.650024282819686E-08, 0, 1.4390134744202534E-15, 1, -3.942476567431186E-08, 0, -9.999996185302734, 11.001757621765137, -180.6604461669922, 1], "mesh" : 7, "name" : "Car_06"}, {"matrix" : [4.214684778958144E-08, -4.214684778958144E-08, -1, 0, -1, 0, -4.214684778958144E-08, 0, 1.7763568394002505E-15, 1, -4.214684778958144E-08, 0, -10, 10.98484992980957, -88.53468322753906, 1], "mesh" : 8, "name" : "Car_05"}, {"matrix" : [4.214684778958144E-08, -4.214684778958144E-08, -1, 0, -1, 0, -4.214684778958144E-08, 0, 1.7763568394002505E-15, 1, -4.214684778958144E-08, 0, -10.000003814697266, 10.959844589233398, -2.592829465866089, 1], "mesh" : 9, "name" : "Car_04"}, {"matrix" : [4.214684778958144E-08, -4.470348358154297E-08, -1, 0, -1, 0, -4.214684778958144E-08, 0, 1.8841108652357854E-15, 1, -4.470348358154297E-08, 0, -11.337523460388184, 8.096964836120605, 102.65887451171875, 1], "mesh" : 10, "name" : "CAR_03"}, {"matrix" : [4.214684778958144E-08, -4.470348358154297E-08, -1, 0, -1, 0, -4.214684778958144E-08, 0, 1.8841108652357854E-15, 1, -4.470348358154297E-08, 0, -11.337528228759766, 8.165533065795898, 200.66343688964844, 1], "mesh" : 11, "name" : "CAR_02"}, {"matrix" : [4.214684778958144E-08, -4.470348358154297E-08, -1, 0, -1, 0, -4.214684778958144E-08, 0, 1.8841108652357854E-15, 1, -4.470348358154297E-08, 0, -11.337532043457031, 8.165529251098633, 294.7249755859375, 1], "mesh" : 12, "name" : "CAR_01"}, {"matrix" : [0.9990255787771182, 0.044135642287264076, 2.7705750582640573E-08, 0, -0.03350145951218597, 0.758316988824709, -0.6510245800018309, 0, -0.028733438104852127, 0.6503902220980362, 0.7590566277503966, 0, 4997.198955389938, -113113.19227939848, 97109.09363174437, 0.9999999999999999], "mesh" : 15, "name" : "Sun"}, {"matrix" : [0.7634436557512267, -0.6458744600418411, 2.0198411831984228E-08, 0, 0.6190564307055613, 0.7317438923294212, -0.285166710615158, 0, 0.18418187118777837, 0.21770872086138368, 0.9584779143333434, 0, -2377.079063175077, -2809.781386030375, 1094.9952430725095, 0.9999999999999999], "mesh" : 16, "name" : "Moon"}, {"children" : [13, 14], "matrix" : [1, 0, 0, 0, 0, 1, 0, 0, 0, 0, 0.9999999999999999, 0, 19.190380936082775, -156.72313245264954, 46.96886825561523, 0.9999999999999999], "mesh" : 14, "name" : "Sky_Null"}, {"matrix" : [1, 0, 0, 0, 0, 1, 0, 0, 0, 0, 0.9999999999999999, 0, 0, 0, 9999.999999999998, 0.9999999999999999], "mesh" : 17, "name" : "Shadow_Pla"}, {"children" : [15, 16], "matrix" : [0.6509859561920166, 0, -0.7590897679328918, 0, -0.7590897679328918, 0, -0.6509859561920166, 0, 0, 1, 0, 0, 0, 0, 0, 1], "mesh" : 13, "name" : "Physical_S"}, {"camera" : 0, "matrix" : [1, 0, 0, 0, 0, 1, 0, 0, 0, 0, 1, 0, -131.4595947265625, 87.45733642578125, 46.968868255615234, 1], "name" : "Camera"}], "samplers" : [{"magFilter" : 9729, "minFilter" : 9729, "wrapS" : 10497, "wrapT" : 10497}, {"magFilter" : 9729, "minFilter" : 9729, "wrapS" : 10497, "wrapT" : 10497}, {"magFilter" : 9729, "minFilter" : 9729, "wrapS" : 10497, "wrapT" : 10497}, {"magFilter" : 9729, "minFilter" : 9729, "wrapS" : 10497, "wrapT" : 10497}, {"magFilter" : 9729, "minFilter" : 9729, "wrapS" : 10497, "wrapT" : 10497}, {"magFilter" : 9729, "minFilter" : 9729, "wrapS" : 10497, "wrapT" : 10497}, {"magFilter" : 9729, "minFilter" : 9729, "wrapS" : 10497, "wrapT" : 10497}, {"magFilter" : 9729, "minFilter" : 9729, "wrapS" : 10497, "wrapT" : 10497}, {"magFilter" : 9729, "minFilter" : 9729, "wrapS" : 10497, "wrapT" : 10497}, {"magFilter" : 9729, "minFilter" : 9729, "wrapS" : 10497, "wrapT" : 10497}, {"magFilter" : 9729, "minFilter" : 9729, "wrapS" : 10497, "wrapT" : 10497}, {"magFilter" : 9729, "minFilter" : 9729, "wrapS" : 10497, "wrapT" : 10497}], "scene" : 0, "scenes" : [{"nodes" : [0, 1, 2, 3, 4, 5, 6, 7, 8, 9, 10, 11, 12, 17, 18]}], "textures" : [{"sampler" : 0, "source" : 0}, {"sampler" : 1, "source" : 1}, {"sampler" : 2, "source" : 2}, {"sampler" : 3, "source" : 3}, {"sampler" : 4, "source" : 4}, {"sampler" : 5, "source" : 5}, {"sampler" : 6, "source" : 6}, {"sampler" : 7, "source" : 7}, {"sampler" : 8, "source" : 8}, {"sampler" : 9, "source" : 9}, {"sampler" : 10, "source" : 10}, {"sampler" : 11, "source" : 11}]}